<mxfile host="65bd71144e">
    <diagram id="C5RBs43oDa-KdzZeNtuy" name="Page-1">
        <mxGraphModel dx="1048" dy="1065" grid="1" gridSize="10" guides="1" tooltips="1" connect="1" arrows="1" fold="1" page="1" pageScale="1" pageWidth="827" pageHeight="1169" math="0" shadow="0">
            <root>
                <mxCell id="WIyWlLk6GJQsqaUBKTNV-0"/>
                <mxCell id="WIyWlLk6GJQsqaUBKTNV-1" parent="WIyWlLk6GJQsqaUBKTNV-0"/>
                <mxCell id="nc_OTh_BJ5X5d1WktT1O-1" value="" style="ellipse;whiteSpace=wrap;html=1;fillColor=#000000;" parent="WIyWlLk6GJQsqaUBKTNV-1" vertex="1">
                    <mxGeometry x="350" y="50" width="20" height="20" as="geometry"/>
                </mxCell>
                <mxCell id="nc_OTh_BJ5X5d1WktT1O-3" value="" style="endArrow=classic;html=1;rounded=0;" parent="WIyWlLk6GJQsqaUBKTNV-1" edge="1">
                    <mxGeometry width="50" height="50" relative="1" as="geometry">
                        <mxPoint x="360" y="190" as="sourcePoint"/>
                        <mxPoint x="359.5" y="250" as="targetPoint"/>
                    </mxGeometry>
                </mxCell>
                <mxCell id="nc_OTh_BJ5X5d1WktT1O-5" value="Mahsulot borligini tekshirish" style="rhombus;whiteSpace=wrap;html=1;" parent="WIyWlLk6GJQsqaUBKTNV-1" vertex="1">
                    <mxGeometry x="290" y="250" width="140" height="110" as="geometry"/>
                </mxCell>
                <mxCell id="nc_OTh_BJ5X5d1WktT1O-6" value="" style="endArrow=classic;html=1;rounded=0;exitX=0;exitY=0.5;exitDx=0;exitDy=0;" parent="WIyWlLk6GJQsqaUBKTNV-1" source="nc_OTh_BJ5X5d1WktT1O-5" edge="1">
                    <mxGeometry width="50" height="50" relative="1" as="geometry">
                        <mxPoint x="240" y="304.86" as="sourcePoint"/>
                        <mxPoint x="210" y="390" as="targetPoint"/>
                        <Array as="points">
                            <mxPoint x="210" y="305"/>
                        </Array>
                    </mxGeometry>
                </mxCell>
                <mxCell id="nc_OTh_BJ5X5d1WktT1O-7" value="" style="endArrow=classic;html=1;rounded=0;exitX=1;exitY=0.5;exitDx=0;exitDy=0;" parent="WIyWlLk6GJQsqaUBKTNV-1" source="nc_OTh_BJ5X5d1WktT1O-5" edge="1">
                    <mxGeometry width="50" height="50" relative="1" as="geometry">
                        <mxPoint x="510" y="300" as="sourcePoint"/>
                        <mxPoint x="510" y="390" as="targetPoint"/>
                        <Array as="points">
                            <mxPoint x="510" y="305"/>
                        </Array>
                    </mxGeometry>
                </mxCell>
                <mxCell id="nc_OTh_BJ5X5d1WktT1O-8" value="To'lovni amalga oshirish" style="rounded=1;whiteSpace=wrap;html=1;" parent="WIyWlLk6GJQsqaUBKTNV-1" vertex="1">
                    <mxGeometry x="150" y="390" width="120" height="60" as="geometry"/>
                </mxCell>
                <mxCell id="nc_OTh_BJ5X5d1WktT1O-9" value="Mahsulot qolmagan." style="rounded=1;whiteSpace=wrap;html=1;" parent="WIyWlLk6GJQsqaUBKTNV-1" vertex="1">
                    <mxGeometry x="450" y="390" width="120" height="60" as="geometry"/>
                </mxCell>
                <mxCell id="nc_OTh_BJ5X5d1WktT1O-10" value="HA" style="text;html=1;align=center;verticalAlign=middle;resizable=0;points=[];autosize=1;strokeColor=none;fillColor=none;" parent="WIyWlLk6GJQsqaUBKTNV-1" vertex="1">
                    <mxGeometry x="250" y="278" width="40" height="30" as="geometry"/>
                </mxCell>
                <mxCell id="nc_OTh_BJ5X5d1WktT1O-11" value="Yo'q" style="text;html=1;align=center;verticalAlign=middle;resizable=0;points=[];autosize=1;strokeColor=none;fillColor=none;" parent="WIyWlLk6GJQsqaUBKTNV-1" vertex="1">
                    <mxGeometry x="425" y="278" width="50" height="30" as="geometry"/>
                </mxCell>
                <mxCell id="nc_OTh_BJ5X5d1WktT1O-12" value="" style="endArrow=classic;html=1;rounded=0;exitX=0.515;exitY=1.075;exitDx=0;exitDy=0;exitPerimeter=0;" parent="WIyWlLk6GJQsqaUBKTNV-1" edge="1">
                    <mxGeometry width="50" height="50" relative="1" as="geometry">
                        <mxPoint x="510.89999999999975" y="450" as="sourcePoint"/>
                        <mxPoint x="510" y="540" as="targetPoint"/>
                    </mxGeometry>
                </mxCell>
                <mxCell id="nc_OTh_BJ5X5d1WktT1O-13" value="" style="ellipse;whiteSpace=wrap;html=1;fillColor=#000000;" parent="WIyWlLk6GJQsqaUBKTNV-1" vertex="1">
                    <mxGeometry x="500" y="540" width="20" height="20" as="geometry"/>
                </mxCell>
                <mxCell id="nc_OTh_BJ5X5d1WktT1O-14" value="Mijoz tashrif buyurdi" style="rounded=1;whiteSpace=wrap;html=1;" parent="WIyWlLk6GJQsqaUBKTNV-1" vertex="1">
                    <mxGeometry x="300" y="130" width="120" height="60" as="geometry"/>
                </mxCell>
                <mxCell id="nc_OTh_BJ5X5d1WktT1O-15" value="" style="endArrow=classic;html=1;rounded=0;" parent="WIyWlLk6GJQsqaUBKTNV-1" edge="1">
                    <mxGeometry width="50" height="50" relative="1" as="geometry">
                        <mxPoint x="360.2" y="70" as="sourcePoint"/>
                        <mxPoint x="359.7" y="130" as="targetPoint"/>
                    </mxGeometry>
                </mxCell>
                <mxCell id="nc_OTh_BJ5X5d1WktT1O-16" value="" style="endArrow=classic;html=1;rounded=0;" parent="WIyWlLk6GJQsqaUBKTNV-1" target="nc_OTh_BJ5X5d1WktT1O-17" edge="1">
                    <mxGeometry width="50" height="50" relative="1" as="geometry">
                        <mxPoint x="210.2" y="450" as="sourcePoint"/>
                        <mxPoint x="209.7" y="510" as="targetPoint"/>
                        <Array as="points">
                            <mxPoint x="210" y="640"/>
                        </Array>
                    </mxGeometry>
                </mxCell>
                <mxCell id="nc_OTh_BJ5X5d1WktT1O-41" value="" style="edgeStyle=orthogonalEdgeStyle;rounded=0;orthogonalLoop=1;jettySize=auto;html=1;" parent="WIyWlLk6GJQsqaUBKTNV-1" source="nc_OTh_BJ5X5d1WktT1O-17" target="nc_OTh_BJ5X5d1WktT1O-21" edge="1">
                    <mxGeometry relative="1" as="geometry"/>
                </mxCell>
                <mxCell id="nc_OTh_BJ5X5d1WktT1O-17" value="To'lov muaffaqiyatli amayga oshdimi" style="rhombus;whiteSpace=wrap;html=1;" parent="WIyWlLk6GJQsqaUBKTNV-1" vertex="1">
                    <mxGeometry x="290" y="560" width="170" height="160" as="geometry"/>
                </mxCell>
                <mxCell id="nc_OTh_BJ5X5d1WktT1O-18" value="HA" style="text;html=1;align=center;verticalAlign=middle;resizable=0;points=[];autosize=1;strokeColor=none;fillColor=none;" parent="WIyWlLk6GJQsqaUBKTNV-1" vertex="1">
                    <mxGeometry x="330" y="710" width="40" height="30" as="geometry"/>
                </mxCell>
                <mxCell id="nc_OTh_BJ5X5d1WktT1O-19" value="Yo'q" style="text;html=1;align=center;verticalAlign=middle;resizable=0;points=[];autosize=1;strokeColor=none;fillColor=none;" parent="WIyWlLk6GJQsqaUBKTNV-1" vertex="1">
                    <mxGeometry x="450" y="620" width="50" height="30" as="geometry"/>
                </mxCell>
                <mxCell id="nc_OTh_BJ5X5d1WktT1O-20" value="" style="endArrow=classic;html=1;rounded=0;entryX=0;entryY=0.5;entryDx=0;entryDy=0;" parent="WIyWlLk6GJQsqaUBKTNV-1" target="nc_OTh_BJ5X5d1WktT1O-24" edge="1">
                    <mxGeometry width="50" height="50" relative="1" as="geometry">
                        <mxPoint x="270" y="829.33" as="sourcePoint"/>
                        <mxPoint x="370" y="829.33" as="targetPoint"/>
                    </mxGeometry>
                </mxCell>
                <mxCell id="nc_OTh_BJ5X5d1WktT1O-21" value="Mijozga xabar berildi to'lov amalga oshmaganligi haqida" style="rounded=1;whiteSpace=wrap;html=1;" parent="WIyWlLk6GJQsqaUBKTNV-1" vertex="1">
                    <mxGeometry x="560" y="610" width="120" height="60" as="geometry"/>
                </mxCell>
                <mxCell id="nc_OTh_BJ5X5d1WktT1O-22" value="" style="ellipse;whiteSpace=wrap;html=1;fillColor=#000000;" parent="WIyWlLk6GJQsqaUBKTNV-1" vertex="1">
                    <mxGeometry x="610" y="760" width="20" height="20" as="geometry"/>
                </mxCell>
                <mxCell id="nc_OTh_BJ5X5d1WktT1O-23" value="" style="endArrow=classic;html=1;rounded=0;exitX=0.515;exitY=1.075;exitDx=0;exitDy=0;exitPerimeter=0;" parent="WIyWlLk6GJQsqaUBKTNV-1" edge="1">
                    <mxGeometry width="50" height="50" relative="1" as="geometry">
                        <mxPoint x="620.4499999999997" y="670" as="sourcePoint"/>
                        <mxPoint x="619.55" y="760" as="targetPoint"/>
                    </mxGeometry>
                </mxCell>
                <mxCell id="nc_OTh_BJ5X5d1WktT1O-24" value="Yukni tayyorlash" style="rounded=1;whiteSpace=wrap;html=1;" parent="WIyWlLk6GJQsqaUBKTNV-1" vertex="1">
                    <mxGeometry x="330" y="780" width="120" height="60" as="geometry"/>
                </mxCell>
                <mxCell id="nc_OTh_BJ5X5d1WktT1O-52" style="edgeStyle=orthogonalEdgeStyle;rounded=0;orthogonalLoop=1;jettySize=auto;html=1;exitX=0.5;exitY=1;exitDx=0;exitDy=0;entryX=1;entryY=0.5;entryDx=0;entryDy=0;" parent="WIyWlLk6GJQsqaUBKTNV-1" source="nc_OTh_BJ5X5d1WktT1O-25" target="nc_OTh_BJ5X5d1WktT1O-38" edge="1">
                    <mxGeometry relative="1" as="geometry"/>
                </mxCell>
                <mxCell id="nc_OTh_BJ5X5d1WktT1O-25" value="Hamkorga topshirish" style="rounded=1;whiteSpace=wrap;html=1;" parent="WIyWlLk6GJQsqaUBKTNV-1" vertex="1">
                    <mxGeometry x="330" y="890" width="120" height="60" as="geometry"/>
                </mxCell>
                <mxCell id="nc_OTh_BJ5X5d1WktT1O-27" value="" style="ellipse;whiteSpace=wrap;html=1;fillColor=#000000;" parent="WIyWlLk6GJQsqaUBKTNV-1" vertex="1">
                    <mxGeometry x="380" y="1140" width="20" height="20" as="geometry"/>
                </mxCell>
                <mxCell id="nc_OTh_BJ5X5d1WktT1O-29" value="" style="endArrow=classic;html=1;rounded=0;exitX=0.5;exitY=1;exitDx=0;exitDy=0;" parent="WIyWlLk6GJQsqaUBKTNV-1" source="nc_OTh_BJ5X5d1WktT1O-17" edge="1">
                    <mxGeometry width="50" height="50" relative="1" as="geometry">
                        <mxPoint x="374.7" y="710" as="sourcePoint"/>
                        <mxPoint x="374.7" y="780" as="targetPoint"/>
                    </mxGeometry>
                </mxCell>
                <mxCell id="nc_OTh_BJ5X5d1WktT1O-30" value="" style="endArrow=classic;html=1;rounded=0;exitX=0.5;exitY=1;exitDx=0;exitDy=0;" parent="WIyWlLk6GJQsqaUBKTNV-1" edge="1">
                    <mxGeometry width="50" height="50" relative="1" as="geometry">
                        <mxPoint x="390" y="840" as="sourcePoint"/>
                        <mxPoint x="390" y="890" as="targetPoint"/>
                    </mxGeometry>
                </mxCell>
                <mxCell id="nc_OTh_BJ5X5d1WktT1O-35" value="" style="edgeStyle=orthogonalEdgeStyle;rounded=0;orthogonalLoop=1;jettySize=auto;html=1;" parent="WIyWlLk6GJQsqaUBKTNV-1" edge="1">
                    <mxGeometry relative="1" as="geometry">
                        <mxPoint x="190" y="990" as="sourcePoint"/>
                        <mxPoint x="190" y="910" as="targetPoint"/>
                    </mxGeometry>
                </mxCell>
                <mxCell id="nc_OTh_BJ5X5d1WktT1O-38" value="Mijoz mahsulotni oldimi" style="rhombus;whiteSpace=wrap;html=1;" parent="WIyWlLk6GJQsqaUBKTNV-1" vertex="1">
                    <mxGeometry x="110" y="990" width="160" height="160" as="geometry"/>
                </mxCell>
                <mxCell id="nc_OTh_BJ5X5d1WktT1O-39" value="" style="endArrow=classic;html=1;rounded=0;entryX=0;entryY=0.5;entryDx=0;entryDy=0;exitX=0.5;exitY=1;exitDx=0;exitDy=0;" parent="WIyWlLk6GJQsqaUBKTNV-1" source="nc_OTh_BJ5X5d1WktT1O-38" target="nc_OTh_BJ5X5d1WktT1O-27" edge="1">
                    <mxGeometry width="50" height="50" relative="1" as="geometry">
                        <mxPoint x="200" y="1160" as="sourcePoint"/>
                        <mxPoint x="250" y="1110" as="targetPoint"/>
                    </mxGeometry>
                </mxCell>
                <mxCell id="nc_OTh_BJ5X5d1WktT1O-40" value="HA" style="text;html=1;align=center;verticalAlign=middle;resizable=0;points=[];autosize=1;strokeColor=none;fillColor=none;" parent="WIyWlLk6GJQsqaUBKTNV-1" vertex="1">
                    <mxGeometry x="210" y="1120" width="40" height="30" as="geometry"/>
                </mxCell>
                <mxCell id="nc_OTh_BJ5X5d1WktT1O-42" value="Yo'q" style="text;html=1;align=center;verticalAlign=middle;resizable=0;points=[];autosize=1;strokeColor=none;fillColor=none;" parent="WIyWlLk6GJQsqaUBKTNV-1" vertex="1">
                    <mxGeometry x="150" y="970" width="50" height="30" as="geometry"/>
                </mxCell>
                <mxCell id="nc_OTh_BJ5X5d1WktT1O-47" style="edgeStyle=orthogonalEdgeStyle;rounded=0;orthogonalLoop=1;jettySize=auto;html=1;exitX=0;exitY=0.5;exitDx=0;exitDy=0;" parent="WIyWlLk6GJQsqaUBKTNV-1" source="nc_OTh_BJ5X5d1WktT1O-43" edge="1">
                    <mxGeometry relative="1" as="geometry">
                        <mxPoint x="70" y="730" as="targetPoint"/>
                    </mxGeometry>
                </mxCell>
                <mxCell id="nc_OTh_BJ5X5d1WktT1O-43" value="O'sha mahsulotdan yana bormi" style="rhombus;whiteSpace=wrap;html=1;" parent="WIyWlLk6GJQsqaUBKTNV-1" vertex="1">
                    <mxGeometry x="95" y="750" width="190" height="160" as="geometry"/>
                </mxCell>
                <mxCell id="nc_OTh_BJ5X5d1WktT1O-44" value="HA" style="text;html=1;align=center;verticalAlign=middle;resizable=0;points=[];autosize=1;strokeColor=none;fillColor=none;" parent="WIyWlLk6GJQsqaUBKTNV-1" vertex="1">
                    <mxGeometry x="270" y="790" width="40" height="30" as="geometry"/>
                </mxCell>
                <mxCell id="nc_OTh_BJ5X5d1WktT1O-48" value="Yo'q" style="text;html=1;align=center;verticalAlign=middle;resizable=0;points=[];autosize=1;strokeColor=none;fillColor=none;" parent="WIyWlLk6GJQsqaUBKTNV-1" vertex="1">
                    <mxGeometry x="60" y="830" width="50" height="30" as="geometry"/>
                </mxCell>
                <mxCell id="nc_OTh_BJ5X5d1WktT1O-50" style="edgeStyle=orthogonalEdgeStyle;rounded=0;orthogonalLoop=1;jettySize=auto;html=1;exitX=0.5;exitY=0;exitDx=0;exitDy=0;" parent="WIyWlLk6GJQsqaUBKTNV-1" source="nc_OTh_BJ5X5d1WktT1O-49" edge="1">
                    <mxGeometry relative="1" as="geometry">
                        <mxPoint x="71" y="590" as="targetPoint"/>
                    </mxGeometry>
                </mxCell>
                <mxCell id="nc_OTh_BJ5X5d1WktT1O-49" value="Mijozni puli qaytariladi" style="rounded=0;whiteSpace=wrap;html=1;" parent="WIyWlLk6GJQsqaUBKTNV-1" vertex="1">
                    <mxGeometry x="10" y="670" width="120" height="60" as="geometry"/>
                </mxCell>
                <mxCell id="nc_OTh_BJ5X5d1WktT1O-51" value="" style="ellipse;whiteSpace=wrap;html=1;fillColor=#000000;" parent="WIyWlLk6GJQsqaUBKTNV-1" vertex="1">
                    <mxGeometry x="60" y="575" width="20" height="20" as="geometry"/>
                </mxCell>
            </root>
        </mxGraphModel>
    </diagram>
</mxfile>